<svg width="60" height="57" viewBox="0 0 60 57" fill="none" xmlns="http://www.w3.org/2000/svg">
<g filter="url(#filter0_b_286_1021)">
<path d="M43.75 0.292496C40.9349 0.336283 38.1812 1.12213 35.7669 2.57067C33.3527 4.01922 31.3634 6.07917 30 8.5425C28.6366 6.07917 26.6474 4.01922 24.2331 2.57067C21.8189 1.12213 19.0651 0.336283 16.25 0.292496C11.7624 0.487473 7.53428 2.45063 4.48948 5.75308C1.44467 9.05552 -0.169359 13.4288 1.77985e-05 17.9175C1.77985e-05 34.855 27.39 54.4175 28.555 55.2475L30 56.27L31.445 55.2475C32.61 54.4225 60 34.855 60 17.9175C60.1694 13.4288 58.5554 9.05552 55.5106 5.75308C52.4658 2.45063 48.2377 0.487473 43.75 0.292496ZM30 50.115C21.8675 44.04 5.00002 29.115 5.00002 17.9175C4.82912 14.7543 5.91593 11.6518 8.02343 9.28675C10.1309 6.92167 13.0881 5.48587 16.25 5.2925C19.4119 5.48587 22.3691 6.92167 24.4766 9.28675C26.5841 11.6518 27.6709 14.7543 27.5 17.9175H32.5C32.3291 14.7543 33.4159 11.6518 35.5234 9.28675C37.6309 6.92167 40.5881 5.48587 43.75 5.2925C46.9119 5.48587 49.8691 6.92167 51.9766 9.28675C54.0841 11.6518 55.1709 14.7543 55 17.9175C55 29.12 38.1325 44.04 30 50.115Z" fill="#FF0000"/>
<path d="M43.75 0.292496C40.9349 0.336283 38.1812 1.12213 35.7669 2.57067C33.3527 4.01922 31.3634 6.07917 30 8.5425C28.6366 6.07917 26.6474 4.01922 24.2331 2.57067C21.8189 1.12213 19.0651 0.336283 16.25 0.292496C11.7624 0.487473 7.53428 2.45063 4.48948 5.75308C1.44467 9.05552 -0.169359 13.4288 1.77985e-05 17.9175C1.77985e-05 34.855 27.39 54.4175 28.555 55.2475L30 56.27L31.445 55.2475C32.61 54.4225 60 34.855 60 17.9175C60.1694 13.4288 58.5554 9.05552 55.5106 5.75308C52.4658 2.45063 48.2377 0.487473 43.75 0.292496ZM30 50.115C21.8675 44.04 5.00002 29.115 5.00002 17.9175C4.82912 14.7543 5.91593 11.6518 8.02343 9.28675C10.1309 6.92167 13.0881 5.48587 16.25 5.2925C19.4119 5.48587 22.3691 6.92167 24.4766 9.28675C26.5841 11.6518 27.6709 14.7543 27.5 17.9175H32.5C32.3291 14.7543 33.4159 11.6518 35.5234 9.28675C37.6309 6.92167 40.5881 5.48587 43.75 5.2925C46.9119 5.48587 49.8691 6.92167 51.9766 9.28675C54.0841 11.6518 55.1709 14.7543 55 17.9175C55 29.12 38.1325 44.04 30 50.115Z" stroke="#FF0000"/>
</g>
<defs>
<filter id="filter0_b_286_1021" x="-4.01208" y="-3.7075" width="68.0242" height="63.9775" filterUnits="userSpaceOnUse" color-interpolation-filters="sRGB">
<feFlood flood-opacity="0" result="BackgroundImageFix"/>
<feGaussianBlur in="BackgroundImageFix" stdDeviation="2"/>
<feComposite in2="SourceAlpha" operator="in" result="effect1_backgroundBlur_286_1021"/>
<feBlend mode="normal" in="SourceGraphic" in2="effect1_backgroundBlur_286_1021" result="shape"/>
</filter>
</defs>
</svg>
